<svg width="200" height="200" viewBox="0 0 200 200" fill="none" xmlns="http://www.w3.org/2000/svg">
<circle cx="100" cy="100" r="98.5" fill="black" stroke="white" stroke-width="3"/>
<path d="M72.168 127.52C72.168 129.739 71.3573 131.659 69.736 133.28C68.2 134.816 66.3227 135.584 64.104 135.584C61.8853 135.584 59.9653 134.816 58.344 133.28C56.808 131.659 56.04 129.739 56.04 127.52C56.04 125.301 56.808 123.381 58.344 121.76C59.9653 120.139 61.8853 119.328 64.104 119.328C66.3227 119.328 68.2 120.139 69.736 121.76C71.3573 123.381 72.168 125.301 72.168 127.52ZM72.168 80.16C72.168 82.3787 71.3573 84.2987 69.736 85.92C68.2 87.456 66.3227 88.224 64.104 88.224C61.8853 88.224 59.9653 87.456 58.344 85.92C56.808 84.2987 56.04 82.3787 56.04 80.16C56.04 77.9413 56.808 76.0213 58.344 74.4C59.9653 72.7787 61.8853 71.968 64.104 71.968C66.3227 71.968 68.2 72.7787 69.736 74.4C71.3573 76.0213 72.168 77.9413 72.168 80.16ZM87.579 154.912C87.4937 154.571 87.4083 154.272 87.323 154.016C87.323 153.845 87.323 153.589 87.323 153.248C87.1523 151.627 87.5363 149.92 88.475 148.128C89.499 146.421 90.267 144.843 90.779 143.392C91.6323 141.429 92.3577 139.381 92.955 137.248C93.6377 135.115 94.235 133.024 94.747 130.976C95.4297 128.757 95.9417 126.624 96.283 124.576C96.6243 122.443 96.9657 120.309 97.307 118.176C97.819 113.568 98.075 108.832 98.075 103.968C98.075 94.1547 96.9657 84.3413 94.747 74.528C94.0643 71.456 93.211 68.4267 92.187 65.44C91.163 62.368 90.0537 59.2533 88.859 56.096C88.4323 55.2427 87.9203 54.304 87.323 53.28C86.7257 52.256 86.2563 51.2747 85.915 50.336C85.659 49.3973 85.7017 48.5867 86.043 47.904C86.3843 47.2213 87.323 46.7947 88.859 46.624C90.139 46.4533 91.5043 46.5387 92.955 46.88C94.4057 47.136 95.643 47.5627 96.667 48.16C98.6297 49.5253 100.208 51.2747 101.403 53.408C102.683 55.5413 103.792 57.5893 104.731 59.552C106.011 62.0267 107.12 64.544 108.059 67.104C108.998 69.5787 109.894 72.1387 110.747 74.784C111.515 77.4293 112.198 80.032 112.795 82.592C113.392 85.0667 113.904 87.6693 114.331 90.4C114.758 92.96 115.056 95.392 115.227 97.696C115.398 100 115.483 102.133 115.483 104.096C115.483 106.571 115.44 109.088 115.355 111.648C115.27 114.123 115.056 116.469 114.715 118.688C114.459 121.077 114.075 123.381 113.563 125.6C113.051 127.733 112.454 129.867 111.771 132C111.088 134.219 110.278 136.395 109.339 138.528C108.486 140.576 107.504 142.624 106.395 144.672C105.712 145.696 104.987 146.805 104.219 148C103.451 149.28 102.598 150.517 101.659 151.712C100.72 152.907 99.6963 153.973 98.587 154.912C97.563 155.851 96.4537 156.533 95.259 156.96C93.979 157.472 92.5283 157.515 90.907 157.088C89.371 156.747 88.2617 156.021 87.579 154.912ZM146.293 127.52C146.293 129.739 145.482 131.659 143.861 133.28C142.325 134.816 140.448 135.584 138.229 135.584C136.01 135.584 134.09 134.816 132.469 133.28C130.933 131.659 130.165 129.739 130.165 127.52C130.165 125.301 130.933 123.381 132.469 121.76C134.09 120.139 136.01 119.328 138.229 119.328C140.448 119.328 142.325 120.139 143.861 121.76C145.482 123.381 146.293 125.301 146.293 127.52ZM146.293 80.16C146.293 82.3787 145.482 84.2987 143.861 85.92C142.325 87.456 140.448 88.224 138.229 88.224C136.01 88.224 134.09 87.456 132.469 85.92C130.933 84.2987 130.165 82.3787 130.165 80.16C130.165 77.9413 130.933 76.0213 132.469 74.4C134.09 72.7787 136.01 71.968 138.229 71.968C140.448 71.968 142.325 72.7787 143.861 74.4C145.482 76.0213 146.293 77.9413 146.293 80.16Z" fill="white"/>
</svg>
